<svg width="19" height="19" viewBox="0 0 19 19" fill="none" xmlns="http://www.w3.org/2000/svg">
<g clip-path="url(#clip0_3_1975)">
<path d="M9.10714 0C6.69233 0 4.37427 0.960092 2.66811 2.6674C0.960181 4.37538 0.000473102 6.69173 0 9.10714C0 11.5215 0.960519 13.8396 2.66811 15.5469C4.37427 17.2542 6.69233 18.2143 9.10714 18.2143C11.522 18.2143 13.84 17.2542 15.5462 15.5469C17.2538 13.8396 18.2143 11.5215 18.2143 9.10714C18.2143 6.69275 17.2538 4.3747 15.5462 2.6674C13.84 0.960092 11.522 0 9.10714 0Z" fill="url(#paint0_linear_3_1975)"/>
<path d="M4.12314 9.011C6.77844 7.85439 8.54864 7.09181 9.43374 6.7234C11.9638 5.67138 12.4889 5.48867 12.8318 5.48248C12.9073 5.48127 13.0752 5.49991 13.1847 5.58849C13.2758 5.6632 13.3014 5.76423 13.3142 5.83516C13.3256 5.90603 13.3413 6.06754 13.3285 6.19362C13.1919 7.63368 12.5985 11.1283 12.2968 12.7412C12.1702 13.4237 11.9183 13.6525 11.675 13.6748C11.1456 13.7235 10.7443 13.3254 10.232 12.9897C9.4309 12.4642 8.97839 12.1372 8.20001 11.6245C7.30068 11.0319 7.88411 10.7062 8.39638 10.174C8.53014 10.0347 10.861 7.91515 10.9051 7.7229C10.9108 7.69886 10.9165 7.60921 10.8624 7.56196C10.8098 7.51458 10.7315 7.5308 10.6746 7.54361C10.5935 7.56182 9.31421 8.40822 6.83251 10.0827C6.46965 10.3322 6.14094 10.4539 5.84496 10.4475C5.52052 10.4405 4.8944 10.2637 4.42908 10.1125C3.85989 9.92712 3.40595 9.82907 3.4458 9.51417C3.46572 9.35024 3.69197 9.18247 4.12314 9.011Z" fill="white"/>
</g>
<defs>
<linearGradient id="paint0_linear_3_1975" x1="9.10714" y1="0" x2="9.10714" y2="18.2143" gradientUnits="userSpaceOnUse">
<stop stop-color="#2AABEE"/>
<stop offset="1" stop-color="#229ED9"/>
</linearGradient>
<clipPath id="clip0_3_1975">
<rect width="19" height="19" fill="white"/>
</clipPath>
</defs>
</svg>
