<svg width="18" height="19" viewBox="0 0 18 19" fill="none" xmlns="http://www.w3.org/2000/svg">
<g clip-path="url(#clip0_3_1967)">
<path d="M0.384922 9.00758C0.3845 10.5396 0.78275 12.0354 1.54002 13.3539L0.3125 17.8588L4.89913 16.65C6.16772 17.3442 7.5891 17.7079 9.0335 17.708H9.0373C13.8055 17.708 17.687 13.808 17.689 9.01443C17.69 6.69161 16.7908 4.50737 15.1572 2.86407C13.5238 1.22091 11.3515 0.315513 9.03695 0.314453C4.26814 0.314453 0.386961 4.21422 0.384992 9.00758" fill="url(#paint0_linear_3_1967)"/>
<path d="M0.0752344 9.00494C0.0747422 10.5921 0.487266 12.1414 1.27153 13.5071L0 18.1735L4.75109 16.9214C6.06016 17.6388 7.53405 18.017 9.03382 18.0176H9.03769C13.977 18.0176 17.9979 13.9773 18 9.01215C18.0008 6.60585 17.0693 4.3431 15.3773 2.64093C13.6851 0.938968 11.4351 0.000989429 9.03769 0C4.09753 0 0.0772734 4.0397 0.0753047 9.00494H0.0752344ZM2.90461 13.2719L2.72721 12.9889C1.98148 11.797 1.58787 10.4198 1.58843 9.0055C1.59005 4.87852 4.93158 1.52089 9.0405 1.52089C11.0303 1.52174 12.9004 2.30141 14.3069 3.71601C15.7134 5.13076 16.4873 7.01138 16.4868 9.01158C16.485 13.1386 13.1434 16.4966 9.03769 16.4966H9.03473C7.69788 16.4959 6.38677 16.135 5.24334 15.4531L4.97123 15.2909L2.15184 16.0339L2.90461 13.2719Z" fill="url(#paint1_linear_3_1967)"/>
<path d="M6.79836 5.24035C6.63059 4.86556 6.45404 4.858 6.2945 4.85143C6.16386 4.84577 6.01452 4.8462 5.86531 4.8462C5.71597 4.8462 5.47332 4.90267 5.26822 5.12776C5.06291 5.35307 4.48438 5.89754 4.48438 7.00492C4.48438 8.11238 5.28685 9.18258 5.39872 9.33291C5.51073 9.48295 6.9479 11.8282 9.22406 12.7304C11.1158 13.4802 11.5007 13.331 11.9113 13.2935C12.3219 13.256 13.2362 12.7491 13.4228 12.2235C13.6095 11.698 13.6095 11.2475 13.5535 11.1534C13.4975 11.0596 13.3482 11.0033 13.1242 10.8908C12.9002 10.7782 11.7993 10.2336 11.594 10.1585C11.3887 10.0835 11.2394 10.046 11.0901 10.2714C10.9407 10.4964 10.5119 11.0033 10.3812 11.1534C10.2506 11.3038 10.1199 11.3226 9.89605 11.21C9.67196 11.0971 8.95077 10.8597 8.09513 10.0929C7.42941 9.4963 6.97998 8.75953 6.84934 8.53415C6.71869 8.30913 6.83534 8.18715 6.94763 8.07499C7.04825 7.97414 7.17165 7.81215 7.28373 7.68077C7.39538 7.54932 7.43265 7.45554 7.50732 7.30542C7.58206 7.15517 7.54466 7.02372 7.48876 6.91114C7.43265 6.79855 6.99748 5.68545 6.79836 5.24042" fill="white"/>
</g>
<defs>
<linearGradient id="paint0_linear_3_1967" x1="9.00077" y1="17.8588" x2="9.00077" y2="0.314453" gradientUnits="userSpaceOnUse">
<stop stop-color="#1FAF38"/>
<stop offset="1" stop-color="#60D669"/>
</linearGradient>
<linearGradient id="paint1_linear_3_1967" x1="9" y1="18.1735" x2="9" y2="0" gradientUnits="userSpaceOnUse">
<stop stop-color="#F9F9F9"/>
<stop offset="1" stop-color="white"/>
</linearGradient>
<clipPath id="clip0_3_1967">
<rect width="18" height="19" fill="white"/>
</clipPath>
</defs>
</svg>
