<svg width="18" height="18" viewBox="0 0 18 18" fill="none" xmlns="http://www.w3.org/2000/svg">
<path fill-rule="evenodd" clip-rule="evenodd" d="M8.60173 12.2108C8.65398 12.2631 8.71605 12.3047 8.78439 12.3331C8.85273 12.3614 8.92599 12.376 8.99998 12.376C9.07397 12.376 9.14723 12.3614 9.21557 12.3331C9.2839 12.3047 9.34598 12.2631 9.39823 12.2108L11.6482 9.96075C11.7005 9.90845 11.742 9.84636 11.7703 9.77803C11.7986 9.7097 11.8132 9.63646 11.8132 9.5625C11.8132 9.48854 11.7986 9.4153 11.7703 9.34697C11.742 9.27864 11.7005 9.21655 11.6482 9.16425C11.5959 9.11195 11.5338 9.07047 11.4655 9.04216C11.3972 9.01386 11.3239 8.99929 11.25 8.99929C11.176 8.99929 11.1028 9.01386 11.0344 9.04216C10.9661 9.07047 10.904 9.11195 10.8517 9.16425L9.56248 10.4546V6.1875C9.56248 6.03832 9.50322 5.89524 9.39773 5.78975C9.29224 5.68426 9.14916 5.625 8.99998 5.625C8.85079 5.625 8.70772 5.68426 8.60223 5.78975C8.49674 5.89524 8.43748 6.03832 8.43748 6.1875V10.4546L7.14823 9.16425C7.04261 9.05863 6.89935 8.99929 6.74998 8.99929C6.60061 8.99929 6.45735 9.05863 6.35173 9.16425C6.24611 9.26987 6.18677 9.41313 6.18677 9.5625C6.18677 9.71187 6.24611 9.85513 6.35173 9.96075L8.60173 12.2108V12.2108Z" fill="#E27B30"/>
<path d="M4.95675 3.75975C6.08117 2.79015 7.51527 2.25466 9 2.25C12.0263 2.25 14.5384 4.5 14.8118 7.40137C16.6028 7.6545 18 9.15412 18 10.9946C18 13.0151 16.3148 14.625 14.2729 14.625H4.25362C1.9215 14.625 0 12.7867 0 10.4827C0 8.49937 1.42425 6.85687 3.30975 6.44062C3.47062 5.46975 4.095 4.50225 4.95675 3.75975V3.75975ZM5.69138 4.61137C4.83975 5.346 4.39425 6.23138 4.39425 6.92438V7.42838L3.89362 7.4835C2.322 7.65562 1.125 8.946 1.125 10.4827C1.125 12.1331 2.50875 13.5 4.25362 13.5H14.2729C15.7275 13.5 16.875 12.3615 16.875 10.9946C16.875 9.62662 15.7275 8.48813 14.2729 8.48813H13.7104V7.92563C13.7115 5.42813 11.619 3.375 9 3.375C7.78486 3.37985 6.61145 3.81874 5.69138 4.6125V4.61137Z" fill="#E27B30"/>
</svg>
