<svg width="12" height="16" viewBox="0 0 12 16" fill="none" xmlns="http://www.w3.org/2000/svg">
<g clip-path="url(#clip0_3_1492)">
<path d="M6.55793 0C7.24894 0.195135 7.97737 0.318238 8.62473 0.598363C11.5376 1.85988 12.809 5.25073 11.2953 7.85265C10.2949 9.57228 9.14569 11.2191 8.06011 12.8968C7.55952 13.6705 7.05436 14.4419 6.54671 15.2121C6.25691 15.652 5.8453 15.6577 5.55052 15.2228C4.00677 12.9479 2.44513 10.6829 0.930897 8.39156C-0.880614 5.65129 0.0265971 2.35229 3.00184 0.729469C3.6438 0.379217 4.34271 0.168456 5.0807 0.0632665C5.17716 0.0495461 5.27071 0.0213429 5.36592 0C5.76256 0 6.16004 0 6.55793 0ZM8.94404 5.47559C8.94986 3.98807 7.61523 2.75018 5.98624 2.73265C4.35601 2.71474 2.98397 3.9591 2.97856 5.45996C2.97316 6.96273 4.33023 8.20634 5.96962 8.201C7.59944 8.19528 8.93822 6.96921 8.94404 5.47559Z" fill="#E27B30"/>
</g>
<defs>
<clipPath id="clip0_3_1492">
<rect width="12" height="16" fill="white"/>
</clipPath>
</defs>
</svg>
