<svg width="21" height="23" viewBox="0 0 21 23" fill="none" xmlns="http://www.w3.org/2000/svg">
<g clip-path="url(#clip0_3_1502)">
<path d="M4.34329 0C4.35572 0.00634738 4.369 0.0199486 4.38017 0.0181352C4.75774 -0.0421651 4.8112 0.248001 4.89077 0.549048C5.51904 2.92599 6.15452 5.30127 6.79718 7.67489C6.84566 7.85624 6.81872 7.93694 6.66041 8.01765C6.03875 8.33502 5.42249 8.66689 4.77763 9.00784C6.22442 13.2973 8.88469 16.2203 12.8073 17.7944C12.8459 17.7192 12.8786 17.6643 12.9039 17.6054C13.1832 16.9589 13.4646 16.3132 13.7382 15.6635C13.7987 15.5194 13.8625 15.4894 14.0071 15.5357C16.26 16.2584 18.5145 16.9753 20.7708 17.6865C20.9079 17.7319 20.9527 17.814 20.9685 17.9531C21.2424 20.3428 19.7023 22.5926 17.5179 22.9363C16.9708 23.0223 16.4034 23.0066 15.8485 22.9739C14.474 22.894 13.1145 22.6221 11.8031 22.1646C9.01896 21.1952 6.51177 19.4534 4.52585 17.1087C2.53994 14.7642 1.14303 11.8969 0.471214 8.78613C0.21684 7.62743 0.0706218 6.44347 0.0348112 5.25246C0.0319102 5.14863 0.0120187 5.04526 0 4.9419V4.30715C0.0165775 4.17386 0.0277678 4.03965 0.0497328 3.90772C0.370093 1.99942 1.35728 0.73403 3.06517 0.174554C3.33166 0.0875035 3.61348 0.056673 3.88825 0H4.34329Z" fill="#E27B30"/>
</g>
<defs>
<clipPath id="clip0_3_1502">
<rect width="21" height="23" fill="white"/>
</clipPath>
</defs>
</svg>
