<svg width="12" height="12" viewBox="0 0 12 12" fill="none" xmlns="http://www.w3.org/2000/svg">
<g clip-path="url(#clip0_3_1485)">
<path d="M2.93362e-07 6.00144C-0.00102619 2.69493 2.69185 0.00082148 5.99836 2.93362e-07C9.30528 -0.00102619 11.9994 2.69185 12 5.99815C12.0006 9.30486 9.30836 11.9988 6.00144 12C2.69657 12.0012 0.00102678 9.30712 2.93362e-07 6.00144ZM8.11866 7.04003C8.08828 7.01519 8.05256 6.99076 8.02258 6.96079C7.62451 6.56395 7.22829 6.16547 6.82878 5.77027C6.77171 5.71382 6.7479 5.65777 6.7481 5.57688C6.75118 4.76124 6.74995 3.9456 6.74995 3.12975C6.74995 3.08869 6.74995 3.04742 6.74995 3.01026C6.23999 3.01026 5.74707 3.01026 5.25046 3.01026C5.25046 4.0971 5.24964 5.1743 5.25334 6.25128C5.25354 6.29357 5.287 6.34449 5.31944 6.37692C5.87231 6.93348 6.42743 7.48758 6.98234 8.04209C7.00678 8.06652 7.03326 8.08869 7.05256 8.10634C7.40423 7.75446 7.75139 7.40731 8.11866 7.04003Z" fill="#E27B30"/>
</g>
<defs>
<clipPath id="clip0_3_1485">
<rect width="12" height="12" fill="white"/>
</clipPath>
</defs>
</svg>
