<svg width="10" height="14" viewBox="0 0 10 14" fill="none" xmlns="http://www.w3.org/2000/svg">
<g clip-path="url(#clip0_3_2276)">
<path d="M5.23804 0C5.78997 0.17003 6.37179 0.277295 6.88886 0.521381C9.21548 1.6206 10.231 4.5752 9.02187 6.84237C8.22286 8.34076 7.30497 9.77572 6.43788 11.2376C6.03804 11.9117 5.63455 12.5839 5.22907 13.255C4.99761 13.6383 4.66884 13.6432 4.43339 13.2643C3.20034 11.2821 1.95301 9.30847 0.743538 7.31195C-0.703376 4.92422 0.0212436 2.04966 2.39768 0.635619C2.91042 0.330429 3.46867 0.146784 4.05813 0.055127C4.13517 0.0431718 4.20989 0.018597 4.28594 0C4.60275 0 4.92023 0 5.23804 0ZM7.1439 4.77113C7.14855 3.47499 6.08254 2.39636 4.78142 2.38108C3.47929 2.36547 2.3834 3.44975 2.37908 4.75752C2.37476 6.06694 3.4587 7.15055 4.76813 7.1459C6.06992 7.14092 7.13925 6.07259 7.1439 4.77113Z" fill="white"/>
<path d="M4.76186 3.17773C5.62463 3.17806 6.34195 3.89338 6.34726 4.75848C6.35257 5.63221 5.62397 6.35716 4.74792 6.34919C3.88183 6.34155 3.17115 5.62224 3.1758 4.75715C3.18012 3.89338 3.89909 3.1774 4.76186 3.17773Z" fill="white"/>
</g>
<defs>
<clipPath id="clip0_3_2276">
<rect width="10" height="14" fill="white"/>
</clipPath>
</defs>
</svg>
