<svg width="12" height="14" viewBox="0 0 12 14" fill="none" xmlns="http://www.w3.org/2000/svg">
<g clip-path="url(#clip0_3_2282)">
<path d="M9.12929 0C9.43481 0.121213 9.53012 0.356996 9.52913 0.671153C9.52381 2.59296 9.5288 4.51476 9.52016 6.43656C9.5195 6.55213 9.4574 6.69459 9.37603 6.77795C8.76067 7.40925 8.13668 8.03225 7.50604 8.64795C7.42899 8.72333 7.29616 8.77846 7.18823 8.78012C6.36863 8.79108 5.54837 8.79074 4.72877 8.78045C4.61985 8.77912 4.48469 8.72964 4.40831 8.65492C3.77103 8.03325 3.14138 7.40327 2.51938 6.76633C2.44366 6.68862 2.38688 6.55478 2.38655 6.44652C2.37858 4.48952 2.38256 2.53218 2.37891 0.575179C2.37858 0.326112 2.45828 0.132504 2.67247 0C4.82441 0 6.97702 0 9.12929 0ZM3.17891 4.4148C3.18223 5.87865 4.30204 7.08413 5.76423 7.1904C6.26635 7.22693 6.74655 7.12432 7.20184 6.91477C7.41969 6.81448 7.49608 6.61589 7.41903 6.41199C7.34265 6.20974 7.15336 6.12174 6.92455 6.18683C6.8402 6.21074 6.75884 6.24528 6.67581 6.27417C5.57593 6.65939 4.42059 6.10978 4.06991 5.03514C3.72088 3.96581 4.32761 2.83605 5.42384 2.51491C6.64393 2.15692 7.91119 3.09441 7.92945 4.36665C7.93244 4.57453 7.86337 4.76183 7.65116 4.78109C7.51069 4.79405 7.33867 4.71335 7.22077 4.62235C7.15004 4.56756 7.14605 4.41447 7.13044 4.30289C7.04875 3.72671 6.66685 3.32455 6.11458 3.24186C5.61479 3.16714 5.10005 3.44875 4.87987 3.91833C4.66269 4.38093 4.77859 4.95943 5.1565 5.29816C5.56564 5.66478 6.11624 5.71327 6.59678 5.40775C6.71268 5.33402 6.78241 5.33502 6.89798 5.40808C7.29416 5.65881 7.71094 5.68106 8.12206 5.44494C8.5405 5.20451 8.73875 4.83356 8.72613 4.34971C8.71484 3.90106 8.59861 3.48462 8.38176 3.0891C7.78267 1.99619 6.50014 1.42068 5.30661 1.72022C4.06028 2.03272 3.17592 3.15286 3.17891 4.4148Z" fill="white"/>
<path d="M0.673828 13.4548C0.769138 13.3515 0.819616 13.2924 0.874742 13.2372C2.0334 12.0773 3.19439 10.9199 4.34873 9.75558C4.47692 9.62606 4.60444 9.57326 4.78709 9.57525C5.58012 9.58488 6.37381 9.57492 7.16684 9.58455C7.27676 9.58588 7.41558 9.62806 7.49063 9.70244C8.70575 10.9056 9.91289 12.1168 11.1214 13.3266C11.1453 13.3505 11.1649 13.3794 11.225 13.4534C11.0138 13.4893 10.8384 13.5444 10.6634 13.5448C7.5255 13.5501 4.38759 13.5501 1.24967 13.5448C1.07234 13.5451 0.895332 13.491 0.673828 13.4548Z" fill="white"/>
<path d="M3.70615 9.20896C2.54616 10.3712 1.33503 11.5844 0.0900223 12.8317C0.059138 12.6484 0.0043431 12.4744 0.00401101 12.3007C-0.00163451 10.0458 2.60544e-05 7.7906 0.00102233 5.53538C0.00102233 5.51081 0.0113172 5.4859 0.00600372 5.50948C1.23573 6.73921 2.4814 7.98454 3.70615 9.20896Z" fill="white"/>
<path d="M8.19922 9.15578C9.40072 7.95428 10.6444 6.71027 11.8778 5.47656C11.9877 5.93484 11.9143 12.5491 11.8074 12.7696C10.6079 11.5681 9.39839 10.3566 8.19922 9.15578Z" fill="white"/>
<path d="M1.56981 5.83366C1.20285 5.46371 0.881718 5.14092 0.561583 4.81746C0.513098 4.76831 0.468266 4.71551 0.443359 4.68795C0.825927 4.30571 1.19986 3.93211 1.56981 3.5625C1.56981 4.27848 1.56981 5.01871 1.56981 5.83366Z" fill="white"/>
<path d="M11.4869 4.61365C11.0867 5.01482 10.7164 5.38543 10.3398 5.76268C10.3398 5.02478 10.3398 4.27957 10.3398 3.50879C10.3907 3.54598 10.4205 3.56325 10.4445 3.5865C10.7948 3.93088 11.1448 4.27625 11.4869 4.61365Z" fill="white"/>
<path d="M6.33192 4.39711C6.33291 4.63189 6.16454 4.81521 5.95035 4.81189C5.74246 4.80857 5.56977 4.63488 5.56645 4.42567C5.56313 4.20549 5.74678 4.02085 5.96363 4.02649C6.16023 4.03148 6.33092 4.2035 6.33192 4.39711Z" fill="white"/>
</g>
<defs>
<clipPath id="clip0_3_2282">
<rect width="12" height="14" fill="white"/>
</clipPath>
</defs>
</svg>
