<svg width="14" height="14" viewBox="0 0 14 14" fill="none" xmlns="http://www.w3.org/2000/svg">
<g clip-path="url(#clip0_3_2268)">
<path d="M0 3.59875C0.163056 3.07339 0.299877 2.53806 0.499131 2.02697C0.611709 1.73806 0.826571 1.48866 0.979 1.24756C2.1081 2.37633 3.22027 3.4885 4.34838 4.61661C4.10097 5.17983 4.15012 5.43787 4.63398 5.92205C5.63788 6.92662 6.64179 7.9312 7.64603 8.93543C8.09834 9.38774 8.38991 9.43789 8.94948 9.17354C10.0633 10.2871 11.1722 11.3956 12.2979 12.521C11.6939 13.0451 10.9819 13.3805 10.1726 13.4957C8.82395 13.6877 7.61315 13.342 6.64113 12.3948C4.77777 10.5793 2.94896 8.72755 1.12047 6.87648C0.515403 6.26411 0.183314 5.49864 0.051474 4.64783C0.0408471 4.57942 0.0176008 4.51333 0.000332161 4.44592C7.09551e-08 4.16331 0 3.88103 0 3.59875Z" fill="white"/>
<path d="M2.96442 0C3.27094 0.226153 3.59805 0.429392 3.87867 0.68344C4.29644 1.06169 4.68166 1.47581 5.0805 1.87498C5.79051 2.58565 5.74069 3.33318 4.96294 3.9429C3.84612 2.82608 2.73163 1.71159 1.57031 0.550605C1.85525 0.369284 2.14516 0.184642 2.43507 0C2.61175 0 2.78808 0 2.96442 0Z" fill="white"/>
<path d="M12.9444 11.9128C11.8299 10.7983 10.7174 9.68585 9.60156 8.57003C10.1429 7.83345 10.9648 7.76405 11.6303 8.42723C12.1105 8.90577 12.589 9.38564 13.0679 9.86551C13.7607 10.5599 13.7079 11.3144 12.9444 11.9128Z" fill="white"/>
</g>
<defs>
<clipPath id="clip0_3_2268">
<rect width="14" height="14" fill="white"/>
</clipPath>
</defs>
</svg>
