<svg width="80" height="51" viewBox="0 0 80 51" fill="none" xmlns="http://www.w3.org/2000/svg">
<path d="M54.5147 39.0838C54.5589 38.6411 54.7574 35.7856 54.7794 35.3724H57.978V42.5H58.9412V34.5534H53.9044C53.8823 34.9887 53.6397 38.5894 53.5956 39.0469C53.4779 40.5964 53.1838 41.6589 52.3603 41.6589C52.1618 41.6589 52.0073 41.6146 51.9632 41.5999V42.4926C52.022 42.5147 52.1765 42.5664 52.4044 42.5664C53.9191 42.5664 54.3529 41.135 54.5147 39.0838ZM63.9632 35.3281C65.3971 35.3281 66.3676 36.3906 66.3823 37.9696H61.4559C61.5441 36.3906 62.5441 35.3281 63.9632 35.3281ZM66.3309 40.2496C66.0956 41.1203 65.25 41.7253 64.0588 41.7253C62.4853 41.7253 61.4559 40.6185 61.4559 38.8182V38.7665H67.3971V38.3386C67.3971 35.9775 66.0588 34.4649 63.978 34.4649C61.8455 34.4649 60.4486 36.0807 60.4486 38.5451C60.4486 41.0464 61.8455 42.5886 64.0368 42.5886C65.7574 42.5886 67.0588 41.6072 67.2941 40.2496H66.3309ZM74.4779 34.5534H68.103V35.3724H70.8088V42.5H71.772V35.3724H74.4779V34.5534Z" fill="white"/>
<path d="M10.6985 43.4444V14.7127H10.6103C10.4926 14.7864 9.89704 15.2071 8.82354 15.9744C7.75001 16.727 6.53677 17.5755 5.18383 18.52C3.8456 19.4497 2.80884 20.1432 2.07353 20.6007V17.3689C2.36765 17.1918 3.79412 16.2105 6.35295 14.4249C8.91177 12.6393 10.3456 11.6506 10.6544 11.4588H13.6103V43.4444H10.6985ZM32.1397 43.9536C30.228 43.9536 28.4779 43.5772 26.8897 42.8247C25.3161 42.0721 24.0515 41.0243 23.0956 39.6814C22.1397 38.3386 21.5956 36.8186 21.4633 35.1215H24.4191C24.625 36.9071 25.4559 38.3828 26.9118 39.5486C28.3676 40.6997 30.125 41.2751 32.1838 41.2751C34.5514 41.2751 36.4926 40.5225 38.0073 39.0174C39.5368 37.4974 40.3015 35.5642 40.3015 33.2179C40.3015 30.8863 39.5441 28.9531 38.0294 27.4184C36.5294 25.8836 34.625 25.1164 32.3161 25.1164C30.7132 25.1164 29.25 25.4779 27.9265 26.201C26.6029 26.924 25.5736 27.9201 24.8382 29.1892H21.9485L23.7574 11.503H41.4044V14.2036H26.25L25.0588 26.0017H25.1471C25.9265 24.9097 26.9927 24.0539 28.3456 23.434C29.7132 22.7995 31.1985 22.4822 32.8015 22.4822C35.8309 22.4822 38.3383 23.4931 40.3236 25.5147C42.3236 27.5364 43.3235 30.0821 43.3235 33.1515C43.3235 36.3095 42.2721 38.8993 40.1691 40.921C38.0662 42.9428 35.3897 43.9536 32.1397 43.9536Z" fill="#E27B30"/>
</svg>
