<svg width="80" height="52" viewBox="0 0 80 52" fill="none" xmlns="http://www.w3.org/2000/svg">
<path d="M13.7285 46.7549C10.8848 46.7549 8.4707 45.9736 6.48633 44.4111C4.50195 42.833 3.27539 40.7549 2.80664 38.1768H6.06445C6.48633 39.8955 7.39258 41.2861 8.7832 42.3486C10.1738 43.4111 11.8301 43.9424 13.752 43.9424C16.7676 43.9424 19.1191 42.6221 20.8066 39.9814C22.4941 37.3252 23.377 33.6143 23.4551 28.8486C23.4551 28.7861 23.4473 28.6689 23.4316 28.4971C23.4316 28.3096 23.4316 28.1689 23.4316 28.0752H23.4082H23.3848C22.7441 29.9814 21.502 31.5361 19.6582 32.7393C17.8145 33.9424 15.7363 34.5439 13.4238 34.5439C10.2051 34.5439 7.52539 33.4893 5.38477 31.3799C3.25977 29.2549 2.19727 26.6064 2.19727 23.4346C2.19727 20.0908 3.30664 17.3252 5.52539 15.1377C7.74414 12.9502 10.5488 11.8564 13.9395 11.8564C16.2207 11.8564 18.252 12.4111 20.0332 13.5205C21.8301 14.6299 23.2441 16.208 24.2754 18.2549C25.791 20.8955 26.5488 24.3408 26.5488 28.5908C26.5488 34.2627 25.416 38.708 23.1504 41.9268C20.8848 45.1455 17.7441 46.7549 13.7285 46.7549ZM13.9395 31.708C16.3613 31.708 18.4004 30.9111 20.0566 29.3174C21.7285 27.7236 22.5645 25.7861 22.5645 23.5049C22.5645 21.0518 21.7363 18.9814 20.0801 17.2939C18.4238 15.5908 16.3848 14.7393 13.9629 14.7393C11.5566 14.7393 9.5332 15.5674 7.89258 17.2236C6.25195 18.8799 5.43164 20.9189 5.43164 23.3408C5.43164 25.7158 6.23633 27.708 7.8457 29.3174C9.45508 30.9111 11.4863 31.708 13.9395 31.708ZM42.8613 46.7549C40.8301 46.7549 38.9707 46.3564 37.2832 45.5596C35.6113 44.7627 34.2676 43.6533 33.252 42.2314C32.2363 40.8096 31.6582 39.2002 31.5176 37.4033H34.6582C34.877 39.2939 35.7598 40.8564 37.3066 42.0908C38.8535 43.3096 40.7207 43.9189 42.9082 43.9189C45.4238 43.9189 47.4863 43.1221 49.0957 41.5283C50.7207 39.9189 51.5332 37.8721 51.5332 35.3877C51.5332 32.9189 50.7285 30.8721 49.1191 29.2471C47.5254 27.6221 45.502 26.8096 43.0488 26.8096C41.3457 26.8096 39.791 27.1924 38.3848 27.958C36.9785 28.7236 35.8848 29.7783 35.1035 31.1221H32.0332L33.9551 12.3955H52.7051V15.2549H36.6035L35.3379 27.7471H35.4316C36.2598 26.5908 37.3926 25.6846 38.8301 25.0283C40.2832 24.3564 41.8613 24.0205 43.5645 24.0205C46.7832 24.0205 49.4473 25.0908 51.5566 27.2314C53.6816 29.3721 54.7441 32.0674 54.7441 35.3174C54.7441 38.6611 53.627 41.4033 51.3926 43.5439C49.1582 45.6846 46.3145 46.7549 42.8613 46.7549Z" fill="#E27B30"/>
<path d="M75.916 39.1392C75.916 39.9777 75.7181 40.6496 75.3223 41.1548C74.9264 41.6548 74.3926 41.9048 73.7207 41.9048C73.0488 41.9048 72.5124 41.6548 72.1113 41.1548C71.7155 40.6496 71.5176 39.9777 71.5176 39.1392C71.5176 38.3058 71.7155 37.6392 72.1113 37.1392C72.5124 36.634 73.0488 36.3813 73.7207 36.3813C74.3926 36.3813 74.9264 36.634 75.3223 37.1392C75.7181 37.6392 75.916 38.3058 75.916 39.1392ZM73.7207 41.1626C74.1009 41.1626 74.4004 40.9803 74.6191 40.6157C74.8431 40.2511 74.9551 39.759 74.9551 39.1392C74.9551 38.5194 74.8457 38.0298 74.627 37.6704C74.4082 37.311 74.1061 37.1313 73.7207 37.1313C73.3353 37.1313 73.0306 37.3136 72.8066 37.6782C72.5879 38.0376 72.4785 38.5246 72.4785 39.1392C72.4785 39.759 72.5879 40.2511 72.8066 40.6157C73.0306 40.9803 73.3353 41.1626 73.7207 41.1626ZM69.6035 33.1626C69.6035 34.0011 69.4056 34.673 69.0098 35.1782C68.6139 35.6782 68.0801 35.9282 67.4082 35.9282C66.7363 35.9282 66.1999 35.6782 65.7988 35.1782C65.403 34.673 65.2051 34.0011 65.2051 33.1626C65.2051 32.3293 65.403 31.6626 65.7988 31.1626C66.1999 30.6574 66.7363 30.4048 67.4082 30.4048C68.0801 30.4048 68.6139 30.6574 69.0098 31.1626C69.4056 31.6626 69.6035 32.3293 69.6035 33.1626ZM67.4082 35.186C67.7884 35.186 68.0879 35.0037 68.3066 34.6392C68.5306 34.2746 68.6426 33.7824 68.6426 33.1626C68.6426 32.5428 68.5332 32.0532 68.3145 31.6938C68.0957 31.3345 67.7936 31.1548 67.4082 31.1548C67.0228 31.1548 66.7181 31.3371 66.4941 31.7017C66.2754 32.061 66.166 32.548 66.166 33.1626C66.166 33.7824 66.2754 34.2746 66.4941 34.6392C66.7181 35.0037 67.0228 35.186 67.4082 35.186ZM66.9082 41.7954H65.8457L74.166 30.522H75.2129L66.9082 41.7954Z" fill="white"/>
</svg>
