<svg width="55" height="53" viewBox="0 0 55 53" fill="none" xmlns="http://www.w3.org/2000/svg">
<path d="M1.32617 43.7085C1.76295 42.4266 2.3336 41.2177 3.22473 40.1791C4.18482 39.0595 5.33558 38.2021 6.6973 37.6301C6.81629 37.5801 6.93259 37.5247 7.10297 37.4476C5.7994 36.2901 5.11652 34.8945 5.21253 33.184C5.29096 31.7911 5.86702 30.6187 6.91095 29.6857C8.90822 27.9007 11.9886 28.017 13.8696 29.9264C15.6627 31.7452 16.0548 35.0974 13.4288 37.4516C15.0123 38.0642 16.3388 39.0027 17.4341 40.3292C19.0271 38.1643 21.0663 36.6903 23.5855 35.8452C19.7492 32.9852 20.2103 28.2063 22.6619 25.8142C25.2096 23.3261 29.1933 23.3139 31.7842 25.7818C34.1844 28.0698 34.8294 32.904 30.9417 35.8154C34.2344 37.2799 34.6401 37.5612 37.0282 40.2346C37.6448 39.6923 38.2236 39.0987 38.8875 38.624C39.5366 38.1589 40.2722 37.814 41.0079 37.3935C39.6597 36.2089 39.0038 34.7012 39.1999 32.8824C39.3365 31.6099 39.9112 30.5403 40.8726 29.687C42.8293 27.9494 45.7853 27.99 47.6812 29.7885C48.7954 30.8459 49.3323 32.1617 49.2728 33.6883C49.2146 35.1934 48.5412 36.4266 47.3648 37.4503C48.6156 37.9385 49.6825 38.5929 50.5993 39.4814C51.7095 40.5578 52.5101 41.8275 52.9888 43.2988C53.5905 45.1432 52.3235 46.9241 50.3749 46.9322C46.8834 46.9471 43.3932 46.9363 39.9017 46.9363C39.7002 46.9363 39.4987 46.9363 39.2148 46.9363C39.2148 47.2946 39.2148 47.6232 39.2148 47.9518C39.2134 50.2561 38.3101 51.4785 36.1195 52.1425C36.0911 52.1506 36.0708 52.1857 36.0465 52.2074C30.175 52.2074 24.3049 52.2074 18.4334 52.2074C18.4091 52.1857 18.3888 52.1506 18.3604 52.1425C16.1914 51.488 15.2678 50.2534 15.2651 48.0032C15.2651 47.657 15.2651 47.3122 15.2651 46.9363C14.9812 46.9363 14.7797 46.9363 14.5782 46.9363C11.1043 46.9363 7.63035 46.9404 4.15642 46.935C2.8204 46.9322 1.84138 46.2061 1.42759 44.9404C1.4019 44.8633 1.35998 44.7916 1.32617 44.7186C1.32617 44.3833 1.32617 44.0466 1.32617 43.7085ZM27.2393 50.5914C29.9384 50.5914 32.6361 50.5968 35.3352 50.5887C36.5049 50.586 37.4839 49.8004 37.5529 48.7213C37.6164 47.7314 37.6624 46.7186 37.5285 45.7423C36.9552 41.5517 33.7517 38.1399 29.5692 37.1663C25.4354 36.2035 21.0595 37.9087 18.6457 41.411C17.2394 43.4529 16.7431 45.7152 16.8702 48.1709C16.95 49.7111 17.7627 50.5901 19.2948 50.5914C21.9439 50.5928 24.5916 50.5914 27.2393 50.5914ZM27.2149 25.5586C24.5023 25.5735 22.355 27.7574 22.3752 30.4795C22.3942 33.1204 24.5875 35.2921 27.2366 35.2935C29.9262 35.2948 32.1182 33.0825 32.1033 30.3821C32.0871 27.6992 29.9032 25.5438 27.2149 25.5586ZM39.2513 45.3204C39.7841 45.3204 40.4223 45.3204 41.0592 45.3204C44.1113 45.3204 47.1619 45.3231 50.2126 45.319C51.2728 45.3177 51.769 44.6361 51.3823 43.6463C51.1389 43.0229 50.8522 42.4009 50.4817 41.8464C47.642 37.5963 41.3256 37.407 38.2236 41.4705C38.1167 41.6098 38.0018 41.8464 38.0491 41.9844C38.421 43.0783 38.828 44.1601 39.2513 45.3204ZM15.2421 45.3204C15.6221 44.2359 15.9507 43.2136 16.3469 42.2197C16.4727 41.9046 16.4632 41.7112 16.2577 41.4611C14.3483 39.1406 11.8926 38.1589 8.94338 38.666C6.09419 39.1555 4.14966 40.8444 3.12196 43.5543C2.696 44.6767 3.16252 45.3204 4.36602 45.3204C7.85617 45.3217 11.3463 45.3204 14.8351 45.3204C15.0014 45.3204 15.1664 45.3204 15.2421 45.3204ZM40.7888 33.4639C40.7861 35.3651 42.3209 36.9121 44.2127 36.9148C46.0937 36.9175 47.6609 35.3557 47.6636 33.476C47.6677 31.5897 46.1153 30.0386 44.2235 30.0373C42.3155 30.0359 40.7915 31.5559 40.7888 33.4639ZM13.6884 33.4585C13.683 31.5518 12.1563 30.0332 10.2469 30.0373C8.35515 30.0413 6.80548 31.5951 6.81359 33.4815C6.8217 35.3638 8.39031 36.9216 10.2699 36.9148C12.1631 36.9067 13.6938 35.3597 13.6884 33.4585Z" fill="#E27B30"/>
<path d="M1.32617 12.5325C1.68452 11.9132 2.24029 11.732 2.92994 11.7212C4.05906 11.7049 5.18684 11.6184 6.31596 11.5765C6.61075 11.5657 6.75815 11.4534 6.85957 11.1708C7.272 10.0309 7.71824 8.90309 8.13609 7.76586C8.34028 7.21143 8.66752 6.82469 9.29361 6.80305C9.8291 6.78412 10.205 7.09785 10.4552 7.75098C10.8893 8.88281 11.3301 10.0119 11.7412 11.1519C11.8507 11.4534 12.0062 11.5684 12.3186 11.5792C13.5316 11.6225 14.7445 11.6887 15.9575 11.7401C16.4984 11.7631 16.9554 11.9267 17.1867 12.4636C17.4003 12.9598 17.2638 13.4615 16.7824 13.8564C15.8168 14.6474 14.8513 15.4371 13.8615 16.1971C13.5654 16.4243 13.5316 16.6271 13.6289 16.9652C13.967 18.1295 14.2753 19.3019 14.5877 20.4729C14.7553 21.1044 14.6215 21.5736 14.1847 21.8671C13.6857 22.2011 13.207 22.1118 12.727 21.7914C11.7047 21.1085 10.6661 20.4486 9.64519 19.7603C9.39638 19.5926 9.21924 19.594 8.97042 19.7616C7.95083 20.4499 6.9123 21.1098 5.8873 21.79C5.40996 22.1064 4.92991 22.2078 4.42958 21.8684C3.97117 21.5574 3.85487 21.1071 4.03743 20.4256C4.33492 19.3208 4.61078 18.2079 4.95019 17.1153C5.10029 16.6325 4.99211 16.3634 4.59455 16.0686C3.72911 15.4263 2.89748 14.7367 2.06991 14.0443C1.7927 13.8117 1.57363 13.5116 1.32752 13.2425C1.32617 13.0045 1.32617 12.7692 1.32617 12.5325ZM14.8554 13.3276C13.6938 13.2641 12.6769 13.1965 11.6573 13.16C11.0394 13.1383 10.6513 12.8489 10.4403 12.2797C10.1361 11.4588 9.82369 10.6407 9.51132 9.82262C9.45723 9.68064 9.38556 9.54406 9.28685 9.325C8.88118 10.3879 8.51066 11.3439 8.15096 12.3053C7.94407 12.8571 7.56273 13.137 6.96775 13.1573C6.09149 13.1884 5.21659 13.2411 4.34033 13.2898C4.18753 13.2979 4.03743 13.3331 3.80078 13.3682C4.61619 14.0254 5.33288 14.6393 6.08878 15.2005C6.71758 15.667 6.89878 16.2106 6.66349 16.9598C6.37276 17.8847 6.14558 18.8299 5.86567 19.8603C6.80007 19.2505 7.65604 18.7123 8.48767 18.1416C9.04885 17.7563 9.56812 17.7617 10.1225 18.143C10.7892 18.6001 11.4734 19.0328 12.1509 19.475C12.3078 19.5764 12.4687 19.6724 12.7297 19.8347C12.4403 18.7569 12.2077 17.8103 11.9291 16.8773C11.7222 16.1863 11.8913 15.6778 12.4687 15.2438C13.2435 14.6583 13.9846 14.0295 14.8554 13.3276Z" fill="#E27B30"/>
<path d="M21.8048 21.069C21.967 20.4497 22.0833 19.994 22.205 19.5396C22.4417 18.662 22.6661 17.7817 22.9285 16.9109C23.0204 16.6039 22.9731 16.4268 22.7162 16.2266C21.7453 15.4707 20.7933 14.6905 19.8372 13.917C19.3058 13.487 19.1544 13.0772 19.3288 12.5593C19.5235 11.9806 19.9684 11.7696 20.5363 11.7439C21.7655 11.6871 22.9947 11.6222 24.2239 11.5803C24.539 11.5695 24.6972 11.4491 24.8054 11.153C25.2259 9.99953 25.6681 8.85283 26.109 7.70613C26.3469 7.0868 26.7215 6.78389 27.2475 6.80418C27.8439 6.82717 28.1833 7.17064 28.3834 7.7183C28.7986 8.85553 29.2529 9.9806 29.664 11.1192C29.7776 11.4343 29.9291 11.5708 30.2725 11.5817C31.5193 11.6209 32.7661 11.6723 34.0101 11.7534C34.9743 11.8156 35.5057 12.681 35.0676 13.4478C34.9554 13.6452 34.7687 13.8115 34.5902 13.9589C33.6504 14.727 32.7093 15.4924 31.7532 16.2402C31.5179 16.4241 31.4598 16.5877 31.5423 16.8784C31.8898 18.0914 32.2116 19.3125 32.5362 20.5322C32.6917 21.115 32.5443 21.5842 32.1102 21.8723C31.6505 22.1765 31.1893 22.1332 30.739 21.8371C29.7397 21.1813 28.7215 20.5498 27.7465 19.8601C27.3584 19.5856 27.0974 19.6154 26.7269 19.8723C25.7303 20.5619 24.704 21.211 23.6871 21.8709C23.2855 22.1319 22.8284 22.1968 22.4552 21.9061C22.1604 21.6789 21.9819 21.3084 21.8048 21.069ZM27.2962 9.43294C27.257 9.4343 27.2178 9.4343 27.1786 9.43565C26.8216 10.3768 26.4605 11.3166 26.1103 12.2605C25.8926 12.8487 25.4937 13.1489 24.8527 13.1597C24.1455 13.1719 23.4383 13.2206 22.731 13.2598C22.4268 13.2774 22.1239 13.3125 21.7155 13.349C22.5999 14.0617 23.3815 14.6999 24.1725 15.326C24.6499 15.7033 24.8122 16.1604 24.6404 16.7527C24.3984 17.5938 24.1807 18.4416 23.9562 19.2868C23.921 19.422 23.9048 19.5613 23.8588 19.8182C24.7216 19.257 25.5059 18.7973 26.2307 18.2591C26.9338 17.7371 27.5545 17.7479 28.2523 18.2591C28.9811 18.7918 29.76 19.257 30.6241 19.8209C30.5727 19.5545 30.5524 19.4125 30.5159 19.2746C30.2915 18.4294 30.0697 17.5816 29.8317 16.7405C29.6708 16.1712 29.8128 15.7168 30.2752 15.3517C30.831 14.9136 31.3814 14.4687 31.9331 14.0238C32.186 13.8196 32.4348 13.61 32.7823 13.3234C31.6478 13.2625 30.6566 13.1881 29.664 13.1624C28.9798 13.1449 28.5741 12.8352 28.3469 12.201C28.0143 11.2734 27.6478 10.3565 27.2962 9.43294Z" fill="#E27B30"/>
<path d="M49.2405 22.0741C49.1229 22.0227 48.847 21.9416 48.6131 21.7928C47.5908 21.1397 46.5725 20.4811 45.5719 19.7942C45.269 19.5859 45.0594 19.6076 44.7686 19.8036C43.7937 20.4662 42.7998 21.1018 41.8113 21.7455C41.1947 22.1471 40.7038 22.1836 40.2711 21.8496C39.7491 21.448 39.7464 20.926 39.9127 20.3445C40.2319 19.2276 40.505 18.0985 40.8417 16.9869C40.9607 16.5948 40.8715 16.3879 40.5577 16.1472C39.6085 15.4197 38.6849 14.6584 37.7559 13.9038C37.242 13.486 37.0852 13.0478 37.265 12.5353C37.4584 11.985 37.8898 11.77 38.4401 11.7443C39.6693 11.6861 40.8985 11.6226 42.1277 11.5793C42.4577 11.5685 42.6267 11.4589 42.743 11.1317C43.15 9.99039 43.6071 8.86803 44.0236 7.72944C44.2223 7.18448 44.5523 6.83019 45.15 6.80044C45.6895 6.7734 46.0736 7.08577 46.3224 7.73349C46.7443 8.83287 47.1851 9.92684 47.5651 11.0411C47.7071 11.4549 47.9275 11.5752 48.3278 11.5874C49.4907 11.6212 50.655 11.6537 51.8125 11.7564C52.183 11.7889 52.6144 11.9566 52.8767 12.2094C53.3608 12.676 53.2175 13.3954 52.6252 13.8781C51.6583 14.6651 50.6888 15.4508 49.707 16.2202C49.4623 16.4122 49.3879 16.5772 49.4812 16.895C49.8369 18.1052 50.1614 19.3263 50.4792 20.5474C50.6928 21.3723 50.1925 22.0646 49.2405 22.0741ZM45.2176 9.39811C45.15 9.4522 45.1108 9.46707 45.0999 9.49412C44.743 10.4204 44.3846 11.3467 44.0371 12.277C43.8248 12.8463 43.4394 13.1398 42.8214 13.1601C41.8951 13.1912 40.9688 13.252 40.0425 13.3061C39.9465 13.3115 39.8519 13.3561 39.7058 13.3967C40.3414 13.9079 40.9174 14.3757 41.4976 14.8382C42.8201 15.8943 42.8187 15.893 42.3738 17.5156C42.171 18.254 41.9749 18.9937 41.7423 19.8591C42.7186 19.2208 43.58 18.6651 44.4333 18.0971C44.9228 17.7712 45.4028 17.755 45.8937 18.0836C46.1452 18.2526 46.4008 18.4162 46.655 18.5826C47.2771 18.9869 47.8991 19.3899 48.609 19.8496C48.348 18.8895 48.1695 18.0295 47.8775 17.2087C47.5421 16.2689 47.7503 15.6063 48.5806 15.0424C49.2973 14.5569 49.941 13.9633 50.7253 13.3291C49.6056 13.2682 48.6347 13.1858 47.6624 13.1722C46.9106 13.1614 46.4873 12.8206 46.2494 12.1242C45.9383 11.2142 45.5719 10.3271 45.2176 9.39811Z" fill="#E27B30"/>
<path d="M36.1836 5.39538C36.0078 5.68341 35.9199 5.93223 35.7482 6.09044C34.6962 7.0627 33.6306 8.02009 32.5596 8.97072C32.1566 9.32772 31.655 9.30067 31.348 8.93827C31.0573 8.5948 31.0992 8.11881 31.4832 7.76993C32.542 6.80578 33.6103 5.84974 34.6759 4.8937C34.9477 4.64894 35.2776 4.51507 35.5968 4.72737C35.8239 4.87612 35.9713 5.14522 36.1836 5.39538Z" fill="#E27B30"/>
<path d="M23.4158 8.45669C23.2225 8.70009 23.0818 9.04762 22.8601 9.11252C22.5869 9.19231 22.165 9.13822 21.9459 8.96513C21.2063 8.38231 20.5274 7.72106 19.827 7.08956C19.4632 6.76232 19.0954 6.44048 18.7411 6.10513C18.3422 5.72785 18.2989 5.2451 18.6154 4.90028C18.9291 4.55816 19.3861 4.52976 19.7864 4.88135C20.8736 5.84009 21.9514 6.80965 23.0169 7.79138C23.1738 7.94013 23.2509 8.17812 23.4158 8.45669Z" fill="#E27B30"/>
<path d="M28.0495 2.71659C28.0495 3.15336 28.0549 3.59149 28.0481 4.02827C28.0387 4.6219 27.7304 4.96808 27.2273 4.96132C26.7419 4.95455 26.4376 4.62055 26.4322 4.05531C26.4241 3.13037 26.4227 2.20544 26.4336 1.28185C26.4403 0.734192 26.7757 0.38396 27.2517 0.390721C27.725 0.397482 28.0373 0.749067 28.0481 1.30484C28.0563 1.77542 28.0495 2.246 28.0495 2.71659Z" fill="#E27B30"/>
</svg>
