<svg width="54" height="52" viewBox="0 0 54 52" fill="none" xmlns="http://www.w3.org/2000/svg">
<g clip-path="url(#clip0_3_1555)">
<path d="M17.7312 37.0213C16.1101 37.0213 14.4889 37.0311 12.8694 37.013C12.5175 37.0097 12.3153 37.1199 12.1426 37.4307C11.5244 38.5405 10.9111 39.6569 10.2173 40.719C10.0315 41.0018 9.5481 41.2583 9.22419 41.2337C8.93317 41.2123 8.57967 40.8325 8.4284 40.525C8.32646 40.3146 8.46293 39.9233 8.5994 39.6717C9.18802 38.5931 9.83583 37.5458 10.4146 36.4606C10.5313 36.2419 10.5445 35.8522 10.4261 35.6434C8.81972 32.8072 7.18868 29.9858 5.53627 27.1758C5.42446 26.9851 5.10549 26.8141 4.87859 26.8075C3.64874 26.7714 2.41724 26.7944 1.18574 26.7895C0.449144 26.7862 0.0134319 26.4228 0.000278325 25.826C-0.0128752 25.2094 0.440921 24.8263 1.20711 24.823C2.41724 24.8181 3.62737 24.8115 4.83913 24.8279C5.17619 24.8329 5.38665 24.7539 5.5708 24.4317C7.17553 21.6185 8.7967 18.8151 10.4294 16.0167C10.6201 15.6912 10.6201 15.4412 10.4277 15.1206C9.80623 14.0831 9.20775 13.0325 8.60926 11.9819C8.2311 11.316 8.3429 10.7405 8.89042 10.4446C9.41327 10.1618 9.93612 10.3574 10.3126 11.0003C10.9243 12.0444 11.5343 13.0884 12.1196 14.1456C12.2988 14.4712 12.5027 14.6044 12.8858 14.6027C16.1068 14.5863 19.3277 14.5879 22.5487 14.6027C22.9269 14.6044 23.134 14.481 23.3198 14.1538C24.9163 11.3604 26.5244 8.57182 28.1488 5.79478C28.356 5.44128 28.3363 5.18314 28.1291 4.84608C27.5734 3.93684 27.0554 3.00459 26.5227 2.0822C25.9621 1.11377 25.9851 0.564608 26.6016 0.217684C27.1968 -0.116087 27.6704 0.135474 28.213 1.07102C28.767 2.02958 29.3014 2.99966 29.8933 3.9352C30.0249 4.14237 30.357 4.34131 30.5987 4.3446C33.8196 4.37091 37.0406 4.35611 40.2616 4.37091C40.6365 4.37255 40.8568 4.26404 41.0409 3.92862C41.6246 2.86976 42.2379 1.82735 42.8479 0.783285C43.2425 0.109167 43.7851 -0.0881354 44.3162 0.229193C44.8439 0.544878 44.9311 1.1039 44.5431 1.78624C43.9544 2.81879 43.3658 3.85299 42.7542 4.87075C42.5651 5.18643 42.5355 5.43141 42.7312 5.76518C44.3638 8.56195 45.9834 11.3669 47.593 14.1769C47.7657 14.4794 47.9548 14.6093 48.3148 14.6027C49.5447 14.5797 50.7762 14.5896 52.0077 14.5961C52.7361 14.5994 53.1734 14.9759 53.1718 15.5744C53.1701 16.168 52.7246 16.556 52.0028 16.5609C50.7713 16.5708 49.5414 16.5757 48.3099 16.556C47.958 16.5494 47.7624 16.6645 47.5881 16.9736C45.9916 19.7671 44.3819 22.554 42.7608 25.3343C42.5733 25.6566 42.5635 25.8999 42.7542 26.2304C44.3688 29.0124 45.9719 31.8009 47.5569 34.5994C47.7591 34.9562 47.9843 35.0696 48.379 35.0614C49.5677 35.0351 50.7581 35.0482 51.9485 35.0548C52.7163 35.0597 53.1751 35.4412 53.1701 36.0512C53.1668 36.6661 52.7213 37.0196 51.937 37.0229C50.7466 37.0262 49.5562 37.0377 48.3674 37.0163C47.9975 37.0097 47.7772 37.1133 47.5865 37.4471C45.9801 40.2603 44.3589 43.0637 42.7279 45.8621C42.5503 46.1662 42.5437 46.3981 42.7262 46.7023C43.3494 47.7381 43.9479 48.7904 44.548 49.8394C44.9344 50.5168 44.8423 51.0857 44.3112 51.3931C43.7769 51.7022 43.2392 51.5 42.8463 50.8275C42.2478 49.8016 41.6443 48.7756 41.0705 47.7348C40.8798 47.3895 40.6677 47.2432 40.255 47.2465C37.0538 47.2646 33.8542 47.2646 30.6529 47.2465C30.2452 47.2448 30.0265 47.3797 29.8341 47.7299C29.2619 48.7723 28.6569 49.795 28.0568 50.8226C27.6638 51.4967 27.1294 51.7006 26.5934 51.3964C26.0574 51.0922 25.9621 50.5266 26.3484 49.8476C26.9469 48.797 27.5471 47.7463 28.1686 46.7088C28.3478 46.4096 28.356 46.1778 28.1751 45.8687C26.5277 43.0587 24.8917 40.2422 23.2722 37.4159C23.088 37.0936 22.8726 37.0147 22.5339 37.018C20.9325 37.0295 19.331 37.0213 17.7312 37.0213ZM34.9558 24.823C36.7414 24.823 38.5253 24.8131 40.3109 24.8312C40.6611 24.8345 40.8551 24.7244 41.0327 24.4169C42.6292 21.6234 44.2389 18.8365 45.8617 16.0562C46.0623 15.7142 46.0787 15.456 45.8749 15.1058C44.2635 12.3452 42.6654 9.57478 41.0804 6.79774C40.8831 6.45246 40.6693 6.32092 40.2632 6.32256C37.0636 6.34065 33.8624 6.34229 30.6628 6.32092C30.2304 6.31763 30.0084 6.47054 29.8045 6.83062C28.2409 9.57313 26.6691 12.3107 25.0693 15.0318C24.8226 15.4511 24.8489 15.7405 25.0873 16.14C26.0837 17.8138 27.0406 19.509 28.0173 21.1943C28.2623 21.6168 28.3494 22.041 28.0387 22.4587C27.5816 23.0719 26.771 22.9601 26.3336 22.2087C25.3208 20.4741 24.3162 18.7346 23.3231 16.9884C23.1538 16.6925 22.9746 16.5527 22.6112 16.5544C19.3491 16.5692 16.087 16.556 12.825 16.5807C12.6014 16.5823 12.2857 16.7681 12.1722 16.9621C10.5313 19.754 8.9233 22.5655 7.29227 25.3623C7.10154 25.6878 7.10647 25.9345 7.29556 26.2584C8.91508 29.0387 10.5247 31.8256 12.1213 34.6207C12.3087 34.9496 12.5175 35.063 12.8924 35.0614C16.1134 35.0466 19.3343 35.0466 22.5553 35.0614C22.9367 35.063 23.1308 34.9282 23.3149 34.6043C25.0577 31.5461 26.8236 28.4994 28.5763 25.4461C28.8229 25.0154 29.1469 24.8082 29.6681 24.8148C31.4273 24.8378 33.1916 24.823 34.9558 24.823ZM35.4211 45.2833C37.062 45.2833 38.7029 45.2981 40.3438 45.2669C40.569 45.2619 40.888 45.0844 40.9998 44.892C42.6506 42.0821 44.28 39.2606 45.888 36.4277C45.9998 36.2304 46.0015 35.8588 45.8896 35.6632C44.2668 32.8154 42.6226 29.9825 40.9587 27.1578C40.8518 26.9769 40.5543 26.8092 40.3438 26.8075C37.0834 26.7862 33.8213 26.7845 30.5609 26.8092C30.3405 26.8108 30.0298 27.0081 29.9147 27.2054C28.2656 30.0121 26.6378 32.8302 25.0298 35.6599C24.918 35.8572 24.918 36.2271 25.0298 36.4244C26.6197 39.2426 28.2458 42.041 29.844 44.8558C30.0331 45.1896 30.2485 45.2948 30.62 45.2915C32.2198 45.2735 33.8196 45.2833 35.4211 45.2833Z" fill="#E27B30"/>
<path d="M18.9113 18.5307C19.6906 18.5307 20.47 18.5439 21.2477 18.5258C21.7327 18.5143 22.055 18.7099 22.2917 19.1292C23.0464 20.4659 23.8208 21.7928 24.5821 23.1262C24.9652 23.7971 24.8715 24.3692 24.347 24.6783C23.8126 24.9924 23.2749 24.7934 22.882 24.121C22.2835 23.095 21.6669 22.0789 21.1112 21.0299C20.881 20.5958 20.6031 20.4824 20.1428 20.4939C18.9146 20.5235 17.6831 20.5202 16.4532 20.4972C15.5982 20.4807 15.0754 19.6619 15.5374 19.0305C15.7215 18.7773 16.1293 18.5833 16.4516 18.557C17.2654 18.4913 18.0892 18.5356 18.9096 18.5356C18.9113 18.534 18.9113 18.5324 18.9113 18.5307Z" fill="#E27B30"/>
<path d="M36.5997 8.28878C37.3774 8.28878 38.1601 8.24274 38.9329 8.31016C39.2781 8.33975 39.7484 8.50746 39.9111 8.76888C40.7974 10.1928 41.6162 11.6594 42.4317 13.126C42.7112 13.6291 42.5205 14.1914 42.0552 14.4529C41.58 14.7192 41.0637 14.5762 40.725 14.078C40.6445 13.9596 40.577 13.833 40.5047 13.7097C39.9407 12.7347 39.3554 11.7728 38.826 10.7797C38.6089 10.3753 38.3508 10.2503 37.9069 10.2618C36.7806 10.293 35.6527 10.2733 34.5264 10.2717C34.3423 10.2717 34.1548 10.2799 33.9756 10.2487C33.4314 10.1566 33.0845 9.73567 33.1108 9.22433C33.1371 8.71134 33.5169 8.3266 34.0792 8.3118C34.9194 8.29043 35.7596 8.30687 36.5997 8.30687C36.5997 8.30029 36.5997 8.29371 36.5997 8.28878Z" fill="#E27B30"/>
<path d="M42.6658 34.2213C42.4093 34.4729 42.1824 34.8379 41.8552 34.9859C41.3981 35.1947 40.9706 34.9711 40.7125 34.5288C40.0811 33.4502 39.4382 32.3782 38.8447 31.2799C38.6211 30.8655 38.3744 30.7028 37.8927 30.7192C36.7056 30.7603 35.5152 30.7356 34.3264 30.7307C33.5487 30.7274 33.1064 30.3608 33.1114 29.7409C33.1147 29.121 33.5537 28.7659 34.3396 28.7643C35.8769 28.761 37.4142 28.7741 38.9515 28.756C39.4382 28.7495 39.7703 28.9336 40.0071 29.3479C40.7782 30.6995 41.5592 32.0461 42.3271 33.4009C42.4438 33.6097 42.5129 33.8464 42.6658 34.2213Z" fill="#E27B30"/>
</g>
<defs>
<clipPath id="clip0_3_1555">
<rect width="54" height="52" fill="white"/>
</clipPath>
</defs>
</svg>
